<svg xmlns="http://www.w3.org/2000/svg" xmlns:xlink="http://www.w3.org/1999/xlink" width="86" height="24" viewBox="0 0 86 24">
    <defs>
        <path id="a" d="M0 .264h9.717V17.55H0z"/>
        <path id="c" d="M.318.258h26.228v17.303H.318z"/>
    </defs>
    <g fill="none" fill-rule="evenodd">
        <path fill="#00A1FF" d="M42.439 16.145c-.395.292-1.031.49-2.076.49h-4.15l.762-2.974h4.15c1.147 0 1.68.238 1.89.577.354.57-.113 1.565-.576 1.907m1.522-7.422c-.148.558-.575 1.24-2.322 1.24h-3.716l.62-2.417h3.716c1.765-.012 1.851.558 1.702 1.177m4.745-.093c.706-2.837-1.016-5.185-5.233-5.185H34.33l-3.425 13.877 1.988 3.413h6.503c4.261 0 7.562-1.988 8.41-5.445.428-1.772-.068-3.011-1.182-3.63v-.044a4.821 4.821 0 0 0 2.08-2.986M54.459 14.039h8.324l.947-4.089h-8.268l.644-2.416h8.188l.947-4.089h-13.44l-4.26 17.284h15.223l.997-4.088h-9.915zM66.406 3.445l-.954 4.089h4.973l-3.264 13.195h5.221l3.27-13.195h5.326L82 3.445z"/>
        <g transform="translate(3 3.18)">
            <mask id="b" fill="#fff">
                <use xlink:href="#a"/>
            </mask>
            <path fill="#000" d="M5.462 17.549H.198l2.28-9.23.526-1.395L1.61 8.318.062 9.886 0 5.276 5.462.264h4.255z" mask="url(#b)"/>
        </g>
        <g transform="translate(7.389 3.18)">
            <mask id="d" fill="#fff">
                <use xlink:href="#c"/>
            </mask>
            <path fill="#000" d="M15.28 2.284v-.037A4.765 4.765 0 0 0 11.17.264H5.564l4.18 7.112 5.537-5.092zm3.122 5.26l8.144-7.28h-7.587C12.856 6.125 6.526 11.789.318 17.549h7.178l5.394-4.814 1.815 3.097c.619.781 1.492 1.73 5.196 1.73h4.335c-1.94-3.358-3.868-6.688-5.834-10.019z" mask="url(#d)"/>
        </g>
    </g>
</svg>
