<svg xmlns="http://www.w3.org/2000/svg" xmlns:xlink="http://www.w3.org/1999/xlink" width="400" height="236" viewBox="0 0 400 236">
    <defs>
        <path id="a" d="M0 0h400v236H0z"/>
    </defs>
    <g fill="none" fill-rule="evenodd">
        <mask id="b" fill="#fff">
            <use xlink:href="#a"/>
        </mask>
        <path fill="#F2F3F4" d="M295.775 125.227c.054 48.27-39.033 87.357-87.303 87.303-48.27-.054-87.445-39.228-87.5-87.499-.054-48.27 39.034-87.357 87.304-87.303 48.27.054 87.445 39.228 87.5 87.499zM118.94 165.169c3.363 0 6.025 2.809 6.166 6.18 0 3.37-2.803 6.18-6.166 6.18-3.364 0-6.166-2.81-6.166-6.18 0-3.371 2.802-6.18 6.166-6.18zm0 8.567c1.26 0 2.382-1.124 2.522-2.528a2.515 2.515 0 0 0-2.522-2.528 2.515 2.515 0 0 0-2.523 2.528 2.515 2.515 0 0 0 2.523 2.528zm163.537 16.152c3.364 0 6.166 2.809 6.166 6.18 0 3.37-2.802 6.18-6.166 6.18-3.363 0-6.166-2.81-6.166-6.18 0-3.371 2.803-6.18 6.166-6.18zm0 8.708a2.515 2.515 0 0 0 2.523-2.529 2.515 2.515 0 0 0-2.523-2.528 2.515 2.515 0 0 0-2.522 2.528 2.515 2.515 0 0 0 2.522 2.529zm49.889-103.652c2.662 0 4.764 2.107 4.624 4.635 0 2.528-2.102 4.634-4.624 4.634-2.523 0-4.625-2.106-4.625-4.634 0-2.528 2.102-4.635 4.625-4.635zm0 6.6c1.12 0 1.961-.982 1.961-1.965 0-1.124-.98-1.967-1.961-1.967-1.121 0-1.962.984-1.962 1.967 0 1.123.98 1.966 1.962 1.966zm-82.26-81.6c2.803 0 4.905 2.247 4.905 4.916 0 2.668-2.242 4.915-4.905 4.915-2.662 0-4.905-2.247-4.905-4.915 0-2.669 2.243-4.916 4.905-4.916zm0 7.022c1.121 0 1.962-.983 1.962-1.966 0-1.124-.84-1.966-1.962-1.966-1.12 0-1.962.842-1.962 1.966s.841 1.966 1.962 1.966zM92.033 135.393a5.179 5.179 0 0 1 5.185 5.197c0 2.809-2.383 5.197-5.185 5.197-2.803 0-5.185-2.388-5.185-5.197 0-2.81 2.382-5.197 5.185-5.197zm208.52 17.276a3.772 3.772 0 0 1 3.785 3.792 3.772 3.772 0 0 1-3.784 3.792 3.772 3.772 0 0 1-3.784-3.792 3.772 3.772 0 0 1 3.784-3.792zm-125.14-131.18c2.943 0 5.465 2.528 5.465 5.477 0 2.95-2.382 5.478-5.465 5.478-2.943 0-5.465-2.528-5.465-5.478 0-2.95 2.382-5.477 5.465-5.477zm29.569 200.562c2.102 0 3.923 1.825 4.064 4.073a4.071 4.071 0 0 1-4.064 4.073 4.071 4.071 0 0 1-4.064-4.073 4.071 4.071 0 0 1 4.064-4.073zm77.915-179.214c2.522 0 4.624 2.107 4.764 4.775 0 2.669-2.102 4.776-4.764 4.776-2.663 0-4.765-2.107-4.765-4.776 0-2.668 2.102-4.775 4.765-4.775zM115.435 84.972a2.666 2.666 0 0 1-2.662-2.669 2.666 2.666 0 0 1 2.662-2.668 2.666 2.666 0 0 1 2.663 2.668 2.666 2.666 0 0 1-2.663 2.669zm218.611-13.624c2.523 0 4.625 1.967 4.625 4.635 0 2.528-2.102 4.635-4.625 4.635-2.522 0-4.624-2.107-4.624-4.635 0-2.528 2.102-4.635 4.624-4.635zM89.51 101.545a2.946 2.946 0 0 1-2.943-2.95 2.946 2.946 0 0 1 2.943-2.949 2.946 2.946 0 0 1 2.943 2.95 2.946 2.946 0 0 1-2.943 2.949zM212.55 11.657l1.822 1.826c.7.702.7 1.686 0 2.388-.701.702-1.682.702-2.383 0l-1.821-1.826-1.682 1.826c-.7.702-1.682.702-2.382 0-.701-.702-.701-1.686 0-2.388l1.821-1.826-1.961-1.826c-.701-.702-.701-1.685 0-2.387.7-.702 1.681-.702 2.382 0l1.822 1.826 1.821-1.826c.701-.702 1.682-.702 2.383 0 .7.702.7 1.685 0 2.387l-1.822 1.826zM87.409 67.416l1.961 1.826c.7.702.7 1.685 0 2.387s-1.682.702-2.382 0l-1.822-1.826-1.822 1.826c-.7.702-1.681.702-2.382 0-.7-.702-.7-1.685 0-2.387l1.822-1.826-1.962-1.826c-.7-.702-.7-1.686 0-2.388s1.681-.702 2.382 0l1.822 1.826 1.822-1.826c.7-.702 1.681-.702 2.382 0 .7.702.7 1.686 0 2.388l-1.822 1.826zm216.788 112.5l1.542 1.545a1.36 1.36 0 0 1 0 1.966c-.56.562-1.401.562-1.962 0l-1.541-1.545-1.542 1.545c-.56.562-1.401.562-1.962 0a1.36 1.36 0 0 1 0-1.966l1.542-1.545-1.542-1.545a1.36 1.36 0 0 1 0-1.967c.56-.561 1.401-.561 1.962 0l1.542 1.545 1.541-1.545c.56-.561 1.401-.561 1.962 0a1.36 1.36 0 0 1 0 1.967l-1.542 1.545z" mask="url(#b)"/>
        <path fill="#28B463" d="M139.819 83.567c-.14-1.123-.42-2.387-.701-3.51l1.822-.422c.28 1.123.56 2.387.84 3.652l-1.961.28zm-21.16 40.871c-2.663-.14-5.186-.983-7.288-2.387l.981-1.545c1.822 1.264 4.064 1.966 6.446 2.106l-.14 1.826zm7.426-1.404l-.84-1.686c1.821-.983 3.783-2.387 5.465-4.354l1.401 1.264c-1.821 2.107-3.924 3.652-6.026 4.776zm-19.899-6.742c-.98-2.107-1.541-4.354-1.541-6.601V108.708l1.822.14V109.551c0 1.966.42 3.932 1.4 5.758l-1.68.983zm70.348-.421v-1.826c2.382 0 4.765-.14 7.287-.281l.14 1.826c-2.522.14-5.045.14-7.427.28zm-7.287-.281l-1.121-.14a40.845 40.845 0 0 1-6.166-.843l.28-1.826c1.822.28 3.784.562 6.026.702l1.121.14-.14 1.967zm22.001-.843l-.28-1.826c2.382-.28 4.765-.702 7.147-1.123l.28 1.826c-2.382.42-4.764.842-7.147 1.123zm-36.575-1.826a32.466 32.466 0 0 1-5.886-2.668c-.28-.14-.56-.281-.84-.562l.98-1.545.841.421c1.682.984 3.644 1.826 5.606 2.529l-.7 1.825zm-18.218-.702l-1.541-.843c1.121-2.106 2.242-4.213 2.943-6.46l1.681.562c-.84 2.247-1.821 4.494-3.083 6.741zm69.227-.28l-.42-1.827c2.242-.561 4.624-1.123 7.007-1.825l.56 1.685c-2.522.843-4.905 1.404-7.147 1.966zm14.154-3.933l-.56-1.686a132.822 132.822 0 0 0 6.866-2.387l.56 1.685c-2.242.843-4.624 1.545-6.866 2.388zm-78.055-2.528c-1.682-1.265-3.504-2.529-5.466-3.512l-.56-.28.84-1.686c.28.14.421.28.701.28 2.102 1.124 3.924 2.529 5.606 3.653l-1.121 1.545zm-32.652-2.669l-1.261-1.264c1.541-1.545 3.784-2.809 6.726-3.652l.56 1.686c-2.802.842-4.764 1.825-6.025 3.23zm19.9-3.511c-2.103-.422-4.205-.702-6.307-.702h-.7V96.77c2.522 0 5.044.14 7.427.702l-.42 1.826zm12.471-1.124l-1.821-.28c.42-2.388.7-4.776.7-7.164h1.822c0 2.528-.28 4.916-.7 7.444zm92.21 4.775l-.701-1.685 3.363-1.264.7 1.685-3.363 1.264z" mask="url(#b)"/>
        <g mask="url(#b)">
            <path fill="#263644" d="M268.743 146.067l-63.341 37.36-63.201-37.36v-.14c0-.28 3.503-3.23 8.829-7.444l.14-.14c17.517-14.186 54.232-43.259 54.232-43.259s36.856 29.073 54.232 43.4c5.466 4.353 9.11 7.303 9.11 7.583z"/>
            <path fill="#FFF" d="M231.467 64.045h-68.246c-5.885 0-10.65 4.775-10.65 10.674V178.23c0 5.9 4.765 10.674 10.65 10.674h85.623c5.886 0 10.65-4.775 10.65-10.674V91.994l-28.027-27.95z"/>
            <path fill="#2C3E51" fill-opacity=".64" d="M231.467 81.32V64.045l27.887 27.95h-17.237c-5.885 0-10.65-4.776-10.65-10.675zm-62.78.281h31.11v31.18h-31.11V81.6zm0 39.466h62.78v6.602h-62.78v-6.602zm0 15.31h62.78v6.6h-62.78v-6.6zm0 14.747h36.715v6.6h-36.715v-6.6z" opacity=".32"/>
            <path fill="#2C3E51" d="M268.743 146.067v68.68H142.201v-68.68l63.201 37.5z"/>
            <path fill="#263644" d="M268.743 214.888l-42.881-43.4-20.46 12.08-20.32-12.08-42.881 43.26z"/>
        </g>
        <g mask="url(#b)">
            <path fill="#28B463" d="M84.185 12.921l79.737 22.753-22.562 13.764-1.962 26.686-10.93-15.871-18.638 12.921-25.645-60.253zm2.102 17.837l8.268 19.102c.42.983 0 2.106-.98 2.528l-.281.14c-.981.421-2.102 0-2.523-.983l-7.987-19.242c-.42-.983.14-2.106 1.12-2.528.982-.421 2.103 0 2.383.983z"/>
            <path fill="#263644" d="M128.468 60.253l10.93 15.87 1.962-26.685-36.155-21.489 23.403 32.023"/>
        </g>
        <g mask="url(#b)">
            <path fill="#FA3C3C" d="M290.885 147.331c-.981 0-1.682-.702-1.822-1.685-.14-.983.7-1.826 1.681-1.966 10.931-1.124 21.02-6.32 28.448-14.747.7-.703 1.822-.843 2.522-.14.701.701.841 1.825.14 2.527-7.987 9.13-18.918 14.888-30.83 16.011h-.14zm-9.39-84.831c24.104-2.247 44.143 17.697 41.9 41.713-1.68 17.978-16.115 32.444-34.052 34.13-6.867.702-13.173-.422-18.918-2.95-1.962-.842-4.064-.983-6.026-.421l-12.332 3.23 2.943-7.303c1.261-2.95.98-6.32-.84-8.848-4.765-6.882-7.428-15.31-6.727-24.439 1.26-18.258 15.835-33.286 34.052-35.112z"/>
            <path fill="#FFF" d="M286.4 119.803l-20.74-20.786 2.102-2.107s3.924 1.686 10.51-5.337c3.924-4.213 7.708-5.056 10.79-4.775 4.906.562 8.97 4.635 9.53 9.55.28 3.09-.56 6.882-4.765 10.815-7.006 6.601-5.325 10.534-5.325 10.534l-2.102 2.106zm-16.115-12.921l7.987 8.006c-2.242 1.685-5.465 1.404-7.427-.562-1.962-1.966-2.242-5.197-.56-7.444zm29.708-17.697l-1.26 1.264a12.13 12.13 0 0 0-4.065-3.932l1.261-1.264a2.871 2.871 0 0 1 4.064 0 2.995 2.995 0 0 1 0 3.932z"/>
        </g>
    </g>
</svg>
